<?xml version="1.0"?><svg fill="#ffffff" xmlns="http://www.w3.org/2000/svg"  viewBox="0 0 24 24" width="24px" height="24px">    <path d="M 5 3 C 3.9 3 3 3.9 3 5 L 3 19 C 3 20.11 3.91 21 5 21 L 19 21 C 20.1 21 21 20.1 21 19 L 21 5 C 21 3.91 20.11 3 19 3 L 5 3 z M 9 8 L 11.509766 8 C 12.389766 8 13.080313 8.1998437 13.570312 8.5898438 C 14.070312 8.9798438 14.310547 9.5600781 14.310547 10.330078 C 14.310547 10.740078 14.219062 11.100156 14.039062 11.410156 C 13.869063 11.730156 13.600234 11.959141 13.240234 12.119141 C 13.690234 12.219141 14.020469 12.450781 14.230469 12.800781 C 14.450469 13.160781 14.550781 13.569063 14.550781 14.039062 C 14.550781 14.859062 14.319609 15.480391 13.849609 15.900391 C 13.389609 16.320391 12.719609 16.529297 11.849609 16.529297 L 9 16.529297 L 9 8 z M 16.880859 8 C 17.040859 8 17.189844 8.0298438 17.339844 8.0898438 C 17.489844 8.1598438 17.620703 8.2491406 17.720703 8.3691406 C 17.810703 8.4791406 17.879687 8.6097656 17.929688 8.7597656 C 17.979688 8.9097656 18 9.0702344 18 9.2402344 C 18 9.5602344 17.949844 9.8491406 17.839844 10.119141 C 17.729844 10.389141 17.569141 10.629844 17.369141 10.839844 C 17.279141 10.939844 17.180312 11.019609 17.070312 11.099609 C 16.960313 11.179609 16.85 11.250781 16.75 11.300781 C 16.65 11.360781 16.560234 11.399453 16.490234 11.439453 C 16.420234 11.469453 16.369375 11.49 16.359375 11.5 L 15.880859 10.75 C 15.960859 10.72 16.059922 10.679141 16.169922 10.619141 C 16.279922 10.569141 16.380469 10.499922 16.480469 10.419922 C 16.580469 10.339922 16.660703 10.240625 16.720703 10.140625 C 16.780703 10.030625 16.820078 9.8997656 16.830078 9.7597656 C 16.600078 9.7597656 16.390937 9.6790625 16.210938 9.5390625 C 16.040937 9.3990625 15.949219 9.1899219 15.949219 8.9199219 C 15.949219 8.8099219 15.969766 8.6998437 16.009766 8.5898438 C 16.049766 8.4798438 16.109453 8.3907812 16.189453 8.3007812 C 16.269453 8.2107813 16.370234 8.1400781 16.490234 8.0800781 C 16.600234 8.0300781 16.730859 8 16.880859 8 z M 10.669922 9.3300781 L 10.669922 11.599609 L 11.589844 11.599609 C 11.929844 11.599609 12.189141 11.500547 12.369141 11.310547 C 12.549141 11.120547 12.640625 10.840234 12.640625 10.490234 C 12.640625 10.090234 12.549375 9.789375 12.359375 9.609375 C 12.179375 9.419375 11.889766 9.3300781 11.509766 9.3300781 L 10.669922 9.3300781 z M 10.669922 12.769531 L 10.669922 15.199219 L 11.849609 15.199219 C 12.199609 15.199219 12.460625 15.100156 12.640625 14.910156 C 12.810625 14.710156 12.900391 14.419063 12.900391 14.039062 C 12.900391 13.629062 12.819922 13.319609 12.669922 13.099609 C 12.529922 12.879609 12.290937 12.769531 11.960938 12.769531 L 10.669922 12.769531 z"/></svg>